<svg width="48" height="48" viewBox="0 0 48 48" fill="none" xmlns="http://www.w3.org/2000/svg">
	<path
		d="M4 15.0001L4 12.0001C4 9.50002 5.5 8.0001 8 8L11 8M44 15.0001L44 12.0001C44 9.50008 42.5 8 40 8L37 8"
		stroke="#000"
		stroke-width="3"
		stroke-linecap="round"
	/>
	<path
		d="M4 33L4 35.9999C4 38.5 5.5 39.9999 8 40L11 40M44 33L44 35.9999C44 38.4999 42.5 40 40 40L37 40"
		stroke="#000"
		stroke-width="3"
		stroke-linecap="round"
	/>
	<path
		d="M7.564 11.1H12.63C14.262 11.1 15.537 11.4513 16.455 12.154C17.373 12.8567 17.832 13.8937 17.832 15.265C17.832 16.6363 17.373 17.6507 16.455 18.308C15.5483 18.9653 14.2733 19.294 12.63 19.294H11.525V22.541C11.525 22.6657 11.4797 22.7733 11.389 22.864C11.2983 22.9547 11.1907 23 11.066 23H7.564C7.43933 23 7.33167 22.9547 7.241 22.864C7.15033 22.7733 7.105 22.6657 7.105 22.541V11.559C7.105 11.4343 7.15033 11.3267 7.241 11.236C7.33167 11.1453 7.43933 11.1 7.564 11.1ZM11.44 14.262V16.149H12.63C12.834 16.149 13.0153 16.0753 13.174 15.928C13.3327 15.7693 13.412 15.5483 13.412 15.265C13.412 14.9817 13.3497 14.7437 13.225 14.551C13.1003 14.3583 12.902 14.262 12.63 14.262H11.44ZM21.973 11.1H25.662C26.07 11.1 26.325 11.287 26.427 11.661L30.218 22.507C30.2293 22.541 30.235 22.5977 30.235 22.677C30.235 22.745 30.1953 22.8187 30.116 22.898C30.048 22.966 29.963 23 29.861 23H26.716C26.376 23 26.155 22.8583 26.053 22.575L25.645 21.453H21.99L21.582 22.575C21.48 22.8583 21.259 23 20.919 23H17.774C17.672 23 17.5813 22.966 17.502 22.898C17.434 22.8187 17.4 22.745 17.4 22.677C17.4 22.5977 17.4056 22.541 17.417 22.507L21.208 11.661C21.31 11.287 21.565 11.1 21.973 11.1ZM22.857 18.138H24.778L23.809 14.976L22.857 18.138ZM31.6146 12.188C32.6573 11.3493 34.0343 10.93 35.7456 10.93C37.4569 10.93 38.8283 11.355 39.8596 12.205C40.9023 13.0437 41.4236 14.228 41.4236 15.758V18.41C41.4236 19.7473 41.0213 20.8297 40.2166 21.657L41.5426 23.578C41.5766 23.646 41.5936 23.714 41.5936 23.782C41.5936 23.8613 41.5596 23.935 41.4916 24.003C41.4349 24.071 41.3556 24.105 41.2536 24.105H37.9216C37.6383 24.105 37.4003 23.9747 37.2076 23.714L36.7316 23.119C36.4029 23.153 36.0743 23.17 35.7456 23.17C34.0116 23.17 32.6289 22.7677 31.5976 21.963C30.5776 21.147 30.0676 19.9627 30.0676 18.41V15.758C30.0676 14.2167 30.5833 13.0267 31.6146 12.188ZM34.8276 19.515C35.0543 19.7417 35.3603 19.855 35.7456 19.855C36.1309 19.855 36.4369 19.7417 36.6636 19.515C36.8903 19.2883 37.0036 18.9427 37.0036 18.478V15.622C37.0036 15.1687 36.8903 14.8287 36.6636 14.602C36.4369 14.364 36.1309 14.245 35.7456 14.245C35.3603 14.245 35.0543 14.364 34.8276 14.602C34.6009 14.8287 34.4876 15.1687 34.4876 15.622V18.478C34.4876 18.9427 34.6009 19.2883 34.8276 19.515Z"
		fill="#000"
	/>
	<path
		d="M18.053 36.439C18.087 36.507 18.104 36.5807 18.104 36.66C18.104 36.7393 18.0643 36.8187 17.985 36.898C17.917 36.966 17.832 37 17.73 37H14.245C13.8937 37 13.65 36.847 13.514 36.541L12.052 33.294H11.355V36.541C11.355 36.6657 11.3097 36.7733 11.219 36.864C11.1283 36.9547 11.0207 37 10.896 37H7.564C7.43933 37 7.33167 36.9547 7.241 36.864C7.15033 36.7733 7.105 36.6657 7.105 36.541V25.559C7.105 25.4343 7.15033 25.3267 7.241 25.236C7.33167 25.1453 7.43933 25.1 7.564 25.1H12.596C14.228 25.1 15.503 25.4683 16.421 26.205C17.339 26.9303 17.798 27.9787 17.798 29.35C17.798 30.71 17.186 31.781 15.962 32.563L18.053 36.439ZM11.355 28.262V30.064H12.596C12.8453 30.064 13.038 29.9847 13.174 29.826C13.31 29.656 13.378 29.4463 13.378 29.197C13.378 28.9477 13.31 28.7323 13.174 28.551C13.0493 28.3583 12.8567 28.262 12.596 28.262H11.355ZM22.2552 25.1H25.9442C26.3522 25.1 26.6072 25.287 26.7092 25.661L30.5002 36.507C30.5115 36.541 30.5172 36.5977 30.5172 36.677C30.5172 36.745 30.4775 36.8187 30.3982 36.898C30.3302 36.966 30.2452 37 30.1432 37H26.9982C26.6582 37 26.4372 36.8583 26.3352 36.575L25.9272 35.453H22.2722L21.8642 36.575C21.7622 36.8583 21.5412 37 21.2012 37H18.0562C17.9542 37 17.8635 36.966 17.7842 36.898C17.7162 36.8187 17.6822 36.745 17.6822 36.677C17.6822 36.5977 17.6879 36.541 17.6992 36.507L21.4902 25.661C21.5922 25.287 21.8472 25.1 22.2552 25.1ZM23.1392 32.138H25.0602L24.0912 28.976L23.1392 32.138ZM30.5538 25.1H40.5158C40.6405 25.1 40.7482 25.1453 40.8388 25.236C40.9295 25.3267 40.9748 25.4343 40.9748 25.559V28.296C40.9748 28.4207 40.9295 28.5283 40.8388 28.619C40.7482 28.7097 40.6405 28.755 40.5158 28.755H37.6938V36.541C37.6938 36.6657 37.6485 36.7733 37.5578 36.864C37.4672 36.9547 37.3595 37 37.2348 37H33.8348C33.7102 37 33.6025 36.9547 33.5118 36.864C33.4212 36.7733 33.3758 36.6657 33.3758 36.541V28.755H30.5538C30.4292 28.755 30.3215 28.7097 30.2308 28.619C30.1402 28.5283 30.0948 28.4207 30.0948 28.296V25.559C30.0948 25.4343 30.1402 25.3267 30.2308 25.236C30.3215 25.1453 30.4292 25.1 30.5538 25.1Z"
		fill="#000"
	/>
</svg>
